<svg version="1.1" id="Layer_1" xmlns="http://www.w3.org/2000/svg" xmlns:xlink="http://www.w3.org/1999/xlink" x="0px" y="0px"
	 width="100%" viewBox="0 0 1024 576" enable-background="new 0 0 1024 576" xml:space="preserve">
<path fill="#000000" opacity="1.000000" stroke="none" 
	d="
M370.270630,325.986298 
	C365.938080,352.727722 354.361938,375.342072 335.651306,394.270874 
	C315.635345,414.520233 291.421478,426.283539 263.239105,430.348969 
	C208.353500,438.266510 152.954620,405.303680 132.021896,353.870453 
	C107.116714,292.676605 137.135254,225.195892 192.278152,198.000916 
	C258.162262,165.508652 340.742096,198.721436 364.796692,267.925507 
	C371.297150,286.627106 373.128052,305.893951 370.270630,325.986298 
M159.411667,236.903595 
	C143.733414,256.057709 134.865280,278.041962 133.447754,302.681793 
	C131.969971,328.368927 139.354813,351.802368 154.367615,372.592499 
	C175.381012,401.692352 203.940170,418.331818 239.823044,420.507507 
	C276.602966,422.737640 307.768829,409.733643 332.363983,382.073669 
	C356.227692,355.236359 365.266693,323.689362 359.245728,288.471008 
	C350.944489,239.914841 307.830719,200.671585 258.319855,196.564072 
	C219.097702,193.310120 186.072540,206.736923 159.411667,236.903595 
z"/>
<path fill="#000000" opacity="1.000000" stroke="none" 
	d="
M712.911987,306.000000 
	C712.912415,297.842590 712.912415,290.185120 712.912415,281.215088 
	C705.915344,293.716705 699.473755,305.225037 693.033142,316.733826 
	C691.894470,318.768555 690.808899,320.834839 689.613708,322.835724 
	C685.953796,328.962616 681.052734,328.973663 677.581726,322.817444 
	C671.283386,311.646820 665.058716,300.434692 658.782959,289.251282 
	C657.427246,286.835388 655.985474,284.467712 654.087158,281.231873 
	C653.140442,298.540405 653.457397,314.778259 653.548401,331.007599 
	C653.567078,334.332489 653.385925,336.344147 649.226929,336.378296 
	C645.106628,336.412109 644.051453,334.550720 644.101501,330.940063 
	C644.311707,315.785522 644.446350,300.629852 644.575867,285.474335 
	C644.624207,279.810150 644.463440,274.141388 644.646240,268.482727 
	C644.711792,266.453674 643.216125,263.203613 646.857178,262.883545 
	C650.124146,262.596436 653.869507,261.421661 656.114990,265.621887 
	C660.432617,273.698242 664.953979,281.665985 669.415405,289.665070 
	C673.938965,297.775391 678.492126,305.869202 683.523438,314.846588 
	C687.789307,307.294342 691.693298,300.439850 695.542297,293.554626 
	C700.662048,284.396179 705.934082,275.314667 710.750488,265.998383 
	C713.103882,261.446289 716.862183,262.631348 720.277222,262.887024 
	C723.964539,263.163055 723.085999,266.479950 723.090454,268.789429 
	C723.130127,289.448059 723.036133,310.106995 723.080200,330.765625 
	C723.087708,334.297974 722.356567,336.399963 718.125549,336.377655 
	C714.140198,336.356598 712.860046,334.750519 712.918945,330.989960 
	C713.046631,322.828674 712.928894,314.663544 712.911987,306.000000 
z"/>
<path fill="#000000" opacity="1.000000" stroke="none" 
	d="
M790.889282,285.147308 
	C789.271057,283.527283 788.401428,281.606018 786.333923,280.778320 
	C785.132019,283.167053 785.359741,285.663666 785.354614,288.100006 
	C785.324524,302.427765 785.271484,316.756104 785.381592,331.083069 
	C785.407654,334.478333 784.700867,336.346710 780.739502,336.347504 
	C776.855225,336.348297 775.889893,334.537537 775.899231,331.143585 
	C775.956726,310.318481 775.916931,289.493164 775.980591,268.668091 
	C775.986877,266.623047 775.257324,263.776733 777.921021,263.038361 
	C780.948792,262.199066 784.189819,262.105377 786.574158,265.117096 
	C791.329529,271.123596 796.212402,277.029083 800.979980,283.026062 
	C809.270752,293.454742 817.507507,303.926392 825.786621,314.364441 
	C826.701721,315.518219 827.744995,316.570374 829.004272,317.977386 
	C830.190247,315.991302 829.770020,314.151581 829.776733,312.447662 
	C829.835327,297.620239 829.870972,282.792419 829.814331,267.965118 
	C829.801758,264.675720 830.416077,262.596405 834.442993,262.607300 
	C838.106445,262.617188 839.432190,263.852081 839.374146,267.551117 
	C839.204224,278.377563 839.318665,289.208496 839.319580,300.037659 
	C839.320435,310.200409 839.365967,320.363525 839.277527,330.525513 
	C839.260132,332.526306 840.166992,335.308990 837.221619,336.001984 
	C834.294250,336.690704 831.659729,336.565765 829.323669,333.554230 
	C818.196655,319.209625 806.773132,305.095001 795.456421,290.897522 
	C794.002747,289.073730 792.556274,287.244232 790.889282,285.147308 
z"/>
<path fill="#000000" opacity="1.000000" stroke="none" 
	d="
M586.587036,272.070190 
	C583.694397,272.915436 583.621277,275.071320 583.529724,277.028992 
	C583.366516,280.520325 583.814514,284.078369 583.313293,287.507141 
	C582.497437,293.089478 585.355774,294.587158 590.067078,294.503693 
	C598.885315,294.347473 607.694641,294.015015 616.523499,294.513763 
	C619.540466,294.684174 621.181702,295.194000 621.202942,298.621552 
	C621.223877,302.005493 620.033020,303.428925 616.538818,303.380615 
	C607.212036,303.251648 597.879517,303.481628 588.554504,303.301086 
	C584.669312,303.225861 583.133179,304.558716 583.338928,308.514740 
	C583.589539,313.332275 583.512939,318.177673 583.341736,323.002655 
	C583.218140,326.484711 584.656860,327.676788 588.076416,327.637939 
	C598.902832,327.514862 609.731812,327.644928 620.559692,327.619385 
	C623.717468,327.611938 626.497437,327.425232 626.448364,332.090729 
	C626.402344,336.476166 623.799072,336.313599 620.834290,336.308472 
	C606.841125,336.284241 592.847229,336.213013 578.855408,336.349335 
	C575.232971,336.384583 573.741516,335.135986 573.759888,331.455292 
	C573.866516,310.132935 573.898193,288.809845 573.838440,267.487335 
	C573.828003,263.755371 575.415833,262.596405 578.978088,262.627930 
	C592.970154,262.751709 606.964233,262.725861 620.956848,262.642731 
	C624.081848,262.624176 626.038086,263.276459 626.110474,266.964111 
	C626.183777,270.697571 624.517761,271.961151 620.997192,271.942535 
	C609.671204,271.882690 598.344360,271.964630 586.587036,272.070190 
z"/>
<path fill="#000000" opacity="1.000000" stroke="none" 
	d="
M498.933350,295.974426 
	C503.615601,285.800018 508.230072,276.006653 512.598267,266.104614 
	C513.835632,263.299774 515.684631,262.490204 518.462708,262.655182 
	C521.067139,262.809875 523.722168,262.216553 525.205200,265.496002 
	C535.428223,288.101898 545.768372,310.654785 556.044678,333.236633 
	C556.302429,333.802948 556.258118,334.506714 556.348145,335.103088 
	C549.715027,337.905609 546.743103,336.821686 544.239197,330.815918 
	C538.166138,316.248779 538.166077,316.249390 522.257141,316.257294 
	C516.425720,316.260193 510.588989,316.410004 504.764954,316.203918 
	C501.276398,316.080505 499.157501,317.240570 497.949310,320.618958 
	C496.719330,324.058228 495.061584,327.347168 493.542847,330.679932 
	C490.696991,336.924957 489.543304,337.410217 481.065491,335.238770 
	C487.020752,322.147278 492.896423,309.230743 498.933350,295.974426 
M510.787537,306.963013 
	C518.131348,306.963013 525.475220,306.963013 533.815796,306.963013 
	C528.673218,295.427765 524.120972,285.216736 518.996094,273.721375 
	C513.819214,285.260925 509.198669,295.560486 504.644684,305.711578 
	C506.560150,307.396576 508.290741,306.813629 510.787537,306.963013 
z"/>
<path fill="#000000" opacity="1.000000" stroke="none" 
	d="
M854.262573,325.378998 
	C863.192505,305.811066 872.011780,286.608612 880.680054,267.338165 
	C882.146790,264.077362 883.969299,262.548645 887.779541,262.536377 
	C891.523682,262.524353 893.036560,264.277252 894.388550,267.272247 
	C903.904663,288.351257 913.542358,309.375366 923.075195,330.446930 
	C923.791260,332.029724 925.007141,333.649689 924.135254,335.607971 
	C916.334656,337.431763 915.535400,337.070496 912.698792,330.458069 
	C906.602356,316.246552 906.602356,316.244385 891.334656,316.233154 
	C885.008545,316.228516 878.681152,316.308411 872.356873,316.202148 
	C869.682190,316.157227 868.060852,317.008972 867.106934,319.683472 
	C865.768311,323.436646 864.055481,327.060883 862.416260,330.701324 
	C859.619507,336.912323 857.978333,337.554108 850.558289,335.386993 
	C850.648499,331.782593 853.235229,329.048584 854.262573,325.378998 
M875.527222,300.891815 
	C874.959778,302.579315 873.614258,304.049011 874.165649,306.655640 
	C883.060425,307.053375 892.030212,307.340149 902.155579,306.467072 
	C897.215210,295.483307 892.645752,285.324341 887.442688,273.756592 
	C883.165588,283.534637 879.516052,291.878052 875.527222,300.891815 
z"/>
<path fill="#000000" opacity="1.000000" stroke="none" 
	d="
M744.739136,277.008179 
	C744.750977,273.687958 744.886475,270.859283 744.741943,268.044983 
	C744.556091,264.427460 745.603088,262.610382 749.737854,262.574921 
	C754.090820,262.537537 755.099792,264.444336 755.061523,268.293457 
	C754.934265,281.075623 754.947937,293.860199 755.042603,306.642853 
	C755.072144,310.628143 754.491089,313.365601 749.432190,313.245667 
	C744.198853,313.121552 744.725769,309.738159 744.726746,306.393402 
	C744.729736,296.764313 744.734314,287.135223 744.739136,277.008179 
z"/>
<path fill="#000000" opacity="1.000000" stroke="none" 
	d="
M432.658691,365.999939 
	C432.658386,317.055573 432.658386,268.611267 432.658386,220.166946 
	C433.419067,220.170212 434.179749,220.173477 434.940430,220.176743 
	C434.940430,277.238525 434.940430,334.300323 434.940430,391.362122 
	C434.283997,391.395996 433.627563,391.429871 432.971161,391.463745 
	C432.298004,383.182190 432.833801,374.816254 432.658691,365.999939 
z"/>
<path fill="#000000" opacity="1.000000" stroke="none" 
	d="
M751.404785,329.508484 
	C750.555969,330.784149 750.059265,331.998718 749.359192,333.081848 
	C748.815979,333.922180 747.950012,334.526855 746.849976,334.378845 
	C745.443604,334.189575 744.871216,333.081512 744.851440,331.899994 
	C744.785156,327.936035 744.828064,323.968414 744.926025,320.004578 
	C744.955688,318.804230 745.480286,317.474548 746.873657,317.567841 
	C749.115601,317.717865 751.674561,317.322723 753.355835,319.293701 
	C755.188660,321.442474 754.114136,327.233246 751.404785,329.508484 
z"/>
<path fill="#000000" opacity="1.000000" stroke="none" 
	d="
M269.363831,350.398468 
	C255.871277,359.991730 242.050949,362.644409 227.580856,353.801514 
	C215.544296,346.445801 210.446030,334.802368 208.807098,321.307404 
	C208.437164,318.261414 209.579895,316.660797 212.947235,316.671906 
	C235.255707,316.745575 257.567017,316.551056 279.871063,316.877441 
	C284.253113,316.941589 289.726501,317.000854 291.737244,322.449615 
	C293.807892,328.060699 291.570526,332.822754 287.754425,337.037170 
	C282.636444,342.689331 276.189178,346.489166 269.363831,350.398468 
M274.860321,321.207581 
	C271.550171,321.233673 268.223572,321.061218 264.933777,321.333557 
	C260.292297,321.717743 258.020386,324.747528 259.133026,329.133057 
	C260.111572,332.989990 261.273163,336.713989 260.647034,340.822693 
	C260.288849,343.173126 262.041351,344.933105 263.956024,345.972382 
	C266.142395,347.159058 267.210327,344.969208 268.384827,343.768494 
	C273.551483,338.486511 275.953583,331.838623 277.427551,324.778320 
	C277.755981,323.205139 277.648071,321.758606 274.860321,321.207581 
M282.705383,324.422546 
	C281.095886,329.098999 279.486389,333.775482 277.607239,339.235474 
	C282.098297,336.019592 285.875793,333.451721 287.115967,328.763184 
	C287.963684,325.558228 287.669159,322.959137 282.705383,324.422546 
z"/>
<path fill="#000000" opacity="1.000000" stroke="none" 
	d="
M237.994568,297.055023 
	C243.739120,299.725555 249.375702,298.239197 252.354050,293.474945 
	C258.172852,284.167053 263.946655,274.831024 269.743866,265.509644 
	C270.785767,263.834381 271.736115,261.498627 274.241516,262.915741 
	C276.959290,264.452911 275.028961,266.302277 274.013214,267.924438 
	C267.921204,277.652893 261.840485,287.388641 255.684555,297.076569 
	C254.467896,298.991272 253.554901,300.700531 254.727982,303.047424 
	C255.572510,304.736969 255.122131,306.654114 254.557297,308.419006 
	C253.228531,312.570709 250.942291,313.478149 247.539307,310.887726 
	C245.671097,309.465576 244.202057,308.305145 241.874161,309.964386 
	C240.291702,311.092346 238.804932,310.258209 238.295288,308.642120 
	C237.378220,305.733948 234.932938,304.722290 232.667648,303.350891 
	C221.849869,296.801910 211.096237,290.146118 200.238205,283.665009 
	C197.114563,281.800568 195.871872,279.798126 198.032547,276.425446 
	C200.163544,273.099060 202.451523,274.498657 204.808792,275.993164 
	C215.769699,282.942352 226.729080,289.893951 237.994568,297.055023 
z"/>
<path fill="#000000" opacity="1.000000" stroke="none" 
	d="
M203.168594,262.816315 
	C198.341644,262.431335 194.041107,261.108337 188.845566,262.090515 
	C192.569031,255.321228 196.982834,250.454086 203.297668,247.799042 
	C208.417740,245.646317 213.102875,242.943344 217.491852,239.580505 
	C220.304703,237.425278 223.693085,236.373520 227.114182,235.599640 
	C229.449005,235.071472 232.160034,233.627243 233.886795,236.510117 
	C235.667374,239.482834 236.397934,242.581955 233.927811,245.793900 
	C226.224304,255.810745 216.354614,261.870514 203.168594,262.816315 
z"/>
<path fill="#000000" opacity="1.000000" stroke="none" 
	d="
M239.335876,270.176697 
	C237.773743,265.677673 239.907211,262.336365 241.694870,258.979645 
	C243.299484,255.966690 244.184601,252.539230 247.005615,249.230423 
	C249.701126,254.965042 252.156357,260.161804 254.585052,265.370911 
	C255.370056,267.054626 254.841995,268.711365 254.065887,270.175446 
	C251.835312,274.383301 249.463669,278.516357 246.491486,283.857635 
	C243.755432,278.654755 241.624329,274.602264 239.335876,270.176697 
z"/>
<path fill="#000000" opacity="1.000000" stroke="none" 
	d="
M175.142914,300.913940 
	C172.606903,295.601593 173.521164,290.864380 175.792755,286.152649 
	C177.085022,283.472290 178.697037,282.808777 181.310593,284.539307 
	C185.554413,287.349304 190.278030,302.282074 188.328003,306.985565 
	C187.385925,309.257874 185.613800,310.405701 183.299713,310.452057 
	C180.650635,310.505127 178.319473,309.461334 177.136459,306.961212 
	C176.291214,305.174896 175.879700,303.183380 175.142914,300.913940 
z"/>
<path fill="#000000" opacity="1.000000" stroke="none" 
	d="
M329.490936,348.479980 
	C333.367798,350.823181 336.972046,352.912964 340.495544,355.131042 
	C343.446503,356.988647 343.886932,359.529480 341.968109,362.390259 
	C340.190094,365.041016 337.895233,365.582611 335.092407,363.865509 
	C329.268188,360.297394 323.419556,356.769012 317.569702,353.242981 
	C314.264648,351.250854 314.189911,348.541321 315.922028,345.541931 
	C317.691711,342.477448 320.199738,342.865814 322.786011,344.373566 
	C324.944427,345.631866 327.052795,346.976013 329.490936,348.479980 
z"/>
<path fill="#000000" opacity="1.000000" stroke="none" 
	d="
M163.026245,254.874634 
	C167.641403,257.559021 171.889297,260.152222 176.252747,262.533722 
	C179.568893,264.343658 180.921066,266.587158 178.944305,270.200287 
	C176.795532,274.127838 174.121201,273.218201 171.071579,271.365387 
	C166.113831,268.353241 161.105057,265.415405 156.016449,262.631531 
	C152.264023,260.578644 150.263794,257.844452 152.551407,253.773285 
	C155.107086,249.225113 158.148422,252.310486 160.977539,253.711258 
	C161.571030,254.005112 162.132477,254.363678 163.026245,254.874634 
z"/>
<path fill="#000000" opacity="1.000000" stroke="none" 
	d="
M322.171387,260.114075 
	C326.650360,257.488647 330.820404,255.057999 334.968323,252.590134 
	C337.542908,251.058350 339.988464,250.525742 341.863495,253.540588 
	C343.753784,256.580017 343.433929,259.191132 340.160461,261.153473 
	C334.306061,264.663025 328.459229,268.185974 322.646790,271.764374 
	C319.781586,273.528290 317.684204,272.887238 315.970947,270.089600 
	C314.311462,267.379822 314.378357,265.078583 317.222198,263.243500 
	C318.760101,262.251129 320.309113,261.276001 322.171387,260.114075 
z"/>
<path fill="#000000" opacity="1.000000" stroke="none" 
	d="
M294.602234,218.613571 
	C296.459747,215.555038 297.945282,212.506302 302.077484,214.813995 
	C306.099915,217.060379 305.370239,220.023514 303.495392,223.222183 
	C300.308594,228.659302 297.111877,234.090668 293.942963,239.538162 
	C292.102234,242.702454 289.724182,243.541122 286.523224,241.450455 
	C283.549774,239.508347 283.310425,237.167450 285.132477,234.247818 
	C288.292999,229.183411 291.331512,224.042862 294.602234,218.613571 
z"/>
<path fill="#000000" opacity="1.000000" stroke="none" 
	d="
M201.144501,220.907074 
	C203.897675,225.488419 206.420029,229.780991 209.071503,233.992249 
	C210.999832,237.054977 210.941681,239.689484 207.583710,241.539062 
	C204.348068,243.321289 201.946747,242.214401 200.168549,239.067383 
	C196.985809,233.434738 193.747345,227.830902 190.399414,222.295319 
	C188.511032,219.173019 188.717133,216.706879 191.972656,214.747589 
	C195.277603,212.758514 197.239075,214.536453 198.896896,217.182693 
	C199.601578,218.307541 200.279129,219.449356 201.144501,220.907074 
z"/>
<path fill="#000000" opacity="1.000000" stroke="none" 
	d="
M165.264801,348.215454 
	C167.562866,346.812988 169.526443,345.559692 171.544724,344.401764 
	C174.526398,342.691162 176.899963,343.230255 178.620560,346.351898 
	C180.317490,349.430573 179.637085,351.618713 176.573944,353.375641 
	C170.950958,356.600800 165.415283,359.978546 159.853180,363.309296 
	C157.061050,364.981323 154.423767,365.264526 152.575882,362.084839 
	C150.772720,358.982056 151.412262,356.441803 154.707153,354.591461 
	C158.184128,352.638855 161.543839,350.477448 165.264801,348.215454 
z"/>
<path fill="#000000" opacity="1.000000" stroke="none" 
	d="
M304.948853,399.479187 
	C300.100189,404.028015 298.144073,403.888031 295.103119,398.859619 
	C291.846771,393.475067 288.847656,387.934296 285.562042,382.568390 
	C283.727264,379.571960 283.993652,377.373199 287.105957,375.554291 
	C290.038147,373.840607 292.356689,374.015381 294.168030,377.202179 
	C297.523926,383.106537 300.973999,388.957489 304.399872,394.821899 
	C305.189972,396.174408 305.465790,397.586853 304.948853,399.479187 
z"/>
<path fill="#000000" opacity="1.000000" stroke="none" 
	d="
M251.349243,203.112396 
	C252.510162,210.784561 251.769577,218.086136 251.837631,225.370972 
	C251.868561,228.679886 249.847733,230.088165 246.706940,230.090439 
	C243.473526,230.092758 241.780823,228.513229 241.780289,225.218704 
	C241.779236,218.749420 241.769485,212.280121 241.756500,205.810837 
	C241.751816,203.481705 242.377991,201.492874 244.813049,200.669556 
	C247.413834,199.790192 249.729736,200.049866 251.349243,203.112396 
z"/>
<path fill="#000000" opacity="1.000000" stroke="none" 
	d="
M193.459702,388.516693 
	C195.914215,384.329590 198.199280,380.469849 200.438187,376.583496 
	C202.193726,373.536224 204.473969,373.707520 207.165253,375.259521 
	C209.793564,376.775238 210.637390,378.745300 209.055740,381.450470 
	C205.451569,387.614960 201.866104,393.791779 198.153564,399.890839 
	C196.563721,402.502686 194.310410,403.499115 191.409912,401.686584 
	C188.616653,399.941101 188.224365,397.623993 189.770767,394.864258 
	C190.906921,392.836670 192.101700,390.841949 193.459702,388.516693 
z"/>
<path fill="#000000" opacity="1.000000" stroke="none" 
	d="
M149.055832,313.334900 
	C146.575104,313.314056 144.583008,313.286133 142.590805,313.275726 
	C139.048721,313.257233 137.466095,311.305847 137.463181,307.945038 
	C137.460159,304.465302 139.307327,302.810974 142.764526,302.827667 
	C149.073196,302.858124 155.382370,302.897705 161.690689,302.848694 
	C165.549454,302.818726 167.042603,304.821350 166.945145,308.453979 
	C166.848969,312.038788 164.941589,313.406586 161.497421,313.319031 
	C157.515808,313.217773 153.528976,313.321136 149.055832,313.334900 
z"/>
<path fill="#000000" opacity="1.000000" stroke="none" 
	d="
M251.916473,407.798126 
	C251.855545,409.924225 251.962326,411.607483 251.688797,413.226440 
	C251.228958,415.948059 249.244080,417.096558 246.682556,417.135590 
	C244.007492,417.176361 241.996780,415.783997 241.926300,413.076660 
	C241.732162,405.618378 241.758652,398.150299 241.892944,390.689606 
	C241.943024,387.906555 244.135315,387.196289 246.488693,387.316437 
	C248.840637,387.436493 251.059875,387.681091 251.472626,390.922974 
	C252.168915,396.391693 251.791275,401.859558 251.916473,407.798126 
z"/>
<path fill="#000000" opacity="1.000000" stroke="none" 
	d="
M356.618469,310.531189 
	C355.445557,312.715759 353.847168,313.338135 351.866180,313.327911 
	C345.380890,313.294434 338.895264,313.265442 332.410095,313.296509 
	C329.043518,313.312653 327.659119,311.657593 327.617340,308.372772 
	C327.574860,305.037170 328.581238,302.834686 332.333679,302.834503 
	C338.819122,302.834198 345.307709,302.699219 351.789001,302.860413 
	C356.557007,302.978973 357.425507,306.132812 356.618469,310.531189 
z"/>
<path fill="#000000" opacity="1.000000" stroke="none" 
	d="
M201.506470,359.432373 
	C196.211136,362.858246 189.924957,360.004913 189.160400,354.201172 
	C188.773911,351.267487 192.540604,347.906097 195.695663,348.369080 
	C200.116470,349.017853 203.344513,354.755859 201.506470,359.432373 
z"/>
<path fill="#000000" opacity="1.000000" stroke="none" 
	d="
M273.669556,245.225494 
	C268.653046,249.221924 262.504395,249.276382 259.762726,245.646332 
	C257.480194,242.624207 258.184509,240.451797 261.803986,239.350174 
	C266.848480,237.814835 273.117767,240.717300 273.669556,245.225494 
z"/>
<path fill="#000000" opacity="1.000000" stroke="none" 
	d="
M227.679718,374.860107 
	C228.166519,377.904205 227.491791,379.971832 224.253128,379.633545 
	C222.475723,379.447968 219.996017,378.633453 220.950912,376.392303 
	C222.095383,373.706177 224.729919,372.990295 227.679718,374.860107 
z"/>
</svg>